%TF.GenerationSoftware,KiCad,Pcbnew,5.1.10*%
%TF.CreationDate,2021-08-06T14:58:04+02:00*%
%TF.ProjectId,EEPROM-Programmer,45455052-4f4d-42d5-9072-6f6772616d6d,rev?*%
%TF.SameCoordinates,Original*%
%TF.FileFunction,Copper,L1,Top*%
%TF.FilePolarity,Positive*%
%FSLAX46Y46*%
G04 Gerber Fmt 4.6, Leading zero omitted, Abs format (unit mm)*
G04 Created by KiCad (PCBNEW 5.1.10) date 2021-08-06 14:58:04*
%MOMM*%
%LPD*%
G01*
G04 APERTURE LIST*
%TA.AperFunction,ComponentPad*%
%ADD10R,1.600000X1.600000*%
%TD*%
%TA.AperFunction,ComponentPad*%
%ADD11O,1.600000X1.600000*%
%TD*%
%TA.AperFunction,ComponentPad*%
%ADD12O,1.400000X1.400000*%
%TD*%
%TA.AperFunction,ComponentPad*%
%ADD13C,1.400000*%
%TD*%
%TA.AperFunction,ComponentPad*%
%ADD14C,1.800000*%
%TD*%
%TA.AperFunction,ComponentPad*%
%ADD15R,1.800000X1.800000*%
%TD*%
%TA.AperFunction,ComponentPad*%
%ADD16O,2.000000X1.440000*%
%TD*%
%TA.AperFunction,ComponentPad*%
%ADD17R,2.000000X1.440000*%
%TD*%
%TA.AperFunction,ComponentPad*%
%ADD18C,5.400000*%
%TD*%
%TA.AperFunction,ComponentPad*%
%ADD19C,1.600000*%
%TD*%
%TA.AperFunction,ViaPad*%
%ADD20C,0.800000*%
%TD*%
%TA.AperFunction,Conductor*%
%ADD21C,0.250000*%
%TD*%
G04 APERTURE END LIST*
D10*
%TO.P,Arduino Nano,1*%
%TO.N,Net-(A1-Pad1)*%
X138045000Y-75920000D03*
D11*
%TO.P,Arduino Nano,17*%
%TO.N,Net-(A1-Pad17)*%
X105025000Y-91160000D03*
%TO.P,Arduino Nano,2*%
%TO.N,Net-(A1-Pad2)*%
X135505000Y-75920000D03*
%TO.P,Arduino Nano,18*%
%TO.N,Net-(A1-Pad18)*%
X107565000Y-91160000D03*
%TO.P,Arduino Nano,3*%
%TO.N,Net-(A1-Pad3)*%
X132965000Y-75920000D03*
%TO.P,Arduino Nano,19*%
%TO.N,Net-(A1-Pad19)*%
X110105000Y-91160000D03*
%TO.P,Arduino Nano,4*%
%TO.N,GND*%
X130425000Y-75920000D03*
%TO.P,Arduino Nano,20*%
%TO.N,Net-(A1-Pad20)*%
X112645000Y-91160000D03*
%TO.P,Arduino Nano,5*%
%TO.N,Net-(A1-Pad5)*%
X127885000Y-75920000D03*
%TO.P,Arduino Nano,21*%
%TO.N,Net-(A1-Pad21)*%
X115185000Y-91160000D03*
%TO.P,Arduino Nano,6*%
%TO.N,Net-(A1-Pad6)*%
X125345000Y-75920000D03*
%TO.P,Arduino Nano,22*%
%TO.N,Net-(A1-Pad22)*%
X117725000Y-91160000D03*
%TO.P,Arduino Nano,7*%
%TO.N,Net-(A1-Pad7)*%
X122805000Y-75920000D03*
%TO.P,Arduino Nano,23*%
%TO.N,Net-(A1-Pad23)*%
X120265000Y-91160000D03*
%TO.P,Arduino Nano,8*%
%TO.N,Net-(A1-Pad8)*%
X120265000Y-75920000D03*
%TO.P,Arduino Nano,24*%
%TO.N,Net-(A1-Pad24)*%
X122805000Y-91160000D03*
%TO.P,Arduino Nano,9*%
%TO.N,Net-(A1-Pad9)*%
X117725000Y-75920000D03*
%TO.P,Arduino Nano,25*%
%TO.N,Net-(A1-Pad25)*%
X125345000Y-91160000D03*
%TO.P,Arduino Nano,10*%
%TO.N,Net-(A1-Pad10)*%
X115185000Y-75920000D03*
%TO.P,Arduino Nano,26*%
%TO.N,Net-(A1-Pad26)*%
X127885000Y-91160000D03*
%TO.P,Arduino Nano,11*%
%TO.N,Net-(A1-Pad11)*%
X112645000Y-75920000D03*
%TO.P,Arduino Nano,27*%
%TO.N,Vcc*%
X130425000Y-91160000D03*
%TO.P,Arduino Nano,12*%
%TO.N,Net-(A1-Pad12)*%
X110105000Y-75920000D03*
%TO.P,Arduino Nano,28*%
%TO.N,Net-(A1-Pad28)*%
X132965000Y-91160000D03*
%TO.P,Arduino Nano,13*%
%TO.N,Net-(A1-Pad13)*%
X107565000Y-75920000D03*
%TO.P,Arduino Nano,29*%
%TO.N,GND*%
X135505000Y-91160000D03*
%TO.P,Arduino Nano,14*%
%TO.N,Net-(A1-Pad14)*%
X105025000Y-75920000D03*
%TO.P,Arduino Nano,30*%
%TO.N,Net-(A1-Pad30)*%
X138045000Y-91160000D03*
%TO.P,Arduino Nano,15*%
%TO.N,Net-(A1-Pad15)*%
X102485000Y-75920000D03*
%TO.P,Arduino Nano,16*%
%TO.N,Net-(A1-Pad16)*%
X102485000Y-91160000D03*
%TD*%
D12*
%TO.P,220,2*%
%TO.N,Net-(D1-Pad2)*%
X102485000Y-102540000D03*
D13*
%TO.P,220,1*%
%TO.N,Net-(A1-Pad16)*%
X102485000Y-94920000D03*
%TD*%
D14*
%TO.P,D1,2*%
%TO.N,Net-(D1-Pad2)*%
X102485000Y-106380000D03*
D15*
%TO.P,D1,1*%
%TO.N,GND*%
X102485000Y-108920000D03*
%TD*%
D16*
%TO.P,28C256,15*%
%TO.N,Net-(A1-Pad8)*%
X151245000Y-75920000D03*
%TO.P,28C256,14*%
%TO.N,GND*%
X166485000Y-75920000D03*
%TO.P,28C256,16*%
%TO.N,Net-(A1-Pad9)*%
X151245000Y-78460000D03*
%TO.P,28C256,13*%
%TO.N,Net-(A1-Pad7)*%
X166485000Y-78460000D03*
%TO.P,28C256,17*%
%TO.N,Net-(A1-Pad10)*%
X151245000Y-81000000D03*
%TO.P,28C256,12*%
%TO.N,Net-(A1-Pad6)*%
X166485000Y-81000000D03*
%TO.P,28C256,18*%
%TO.N,Net-(A1-Pad11)*%
X151245000Y-83540000D03*
%TO.P,28C256,11*%
%TO.N,Net-(A1-Pad5)*%
X166485000Y-83540000D03*
%TO.P,28C256,19*%
%TO.N,Net-(A1-Pad12)*%
X151245000Y-86080000D03*
%TO.P,28C256,10*%
%TO.N,Net-(U1-Pad15)*%
X166485000Y-86080000D03*
%TO.P,28C256,20*%
%TO.N,Net-(A1-Pad23)*%
X151245000Y-88620000D03*
%TO.P,28C256,9*%
%TO.N,Net-(U1-Pad1)*%
X166485000Y-88620000D03*
%TO.P,28C256,21*%
%TO.N,Net-(U2-Pad2)*%
X151245000Y-91160000D03*
%TO.P,28C256,8*%
%TO.N,Net-(U1-Pad2)*%
X166485000Y-91160000D03*
%TO.P,28C256,22*%
%TO.N,Net-(A1-Pad22)*%
X151245000Y-93700000D03*
%TO.P,28C256,7*%
%TO.N,Net-(U1-Pad3)*%
X166485000Y-93700000D03*
%TO.P,28C256,23*%
%TO.N,Net-(U2-Pad3)*%
X151245000Y-96240000D03*
%TO.P,28C256,6*%
%TO.N,Net-(U1-Pad4)*%
X166485000Y-96240000D03*
%TO.P,28C256,24*%
%TO.N,Net-(U2-Pad1)*%
X151245000Y-98780000D03*
%TO.P,28C256,5*%
%TO.N,Net-(U1-Pad5)*%
X166485000Y-98780000D03*
%TO.P,28C256,25*%
%TO.N,Net-(U2-Pad15)*%
X151245000Y-101320000D03*
%TO.P,28C256,4*%
%TO.N,Net-(U1-Pad6)*%
X166485000Y-101320000D03*
%TO.P,28C256,26*%
%TO.N,Net-(U2-Pad5)*%
X151245000Y-103860000D03*
%TO.P,28C256,3*%
%TO.N,Net-(U1-Pad7)*%
X166485000Y-103860000D03*
%TO.P,28C256,27*%
%TO.N,Net-(A1-Pad21)*%
X151245000Y-106400000D03*
%TO.P,28C256,2*%
%TO.N,Net-(U2-Pad4)*%
X166485000Y-106400000D03*
%TO.P,28C256,28*%
%TO.N,Vcc*%
X151245000Y-108940000D03*
D17*
%TO.P,28C256,1*%
%TO.N,Net-(U2-Pad6)*%
X166485000Y-108940000D03*
%TD*%
D18*
%TO.P,H4,1*%
%TO.N,GND*%
X100485000Y-121920000D03*
%TD*%
%TO.P,H1,1*%
%TO.N,GND*%
X100485000Y-69920000D03*
%TD*%
D19*
%TO.P,C3,1*%
%TO.N,GND*%
X143485000Y-113920000D03*
%TO.P,C3,2*%
%TO.N,Vcc*%
X143485000Y-108920000D03*
%TD*%
%TO.P,C1,1*%
%TO.N,GND*%
X190485000Y-81920000D03*
%TO.P,C1,2*%
%TO.N,Vcc*%
X190485000Y-76920000D03*
%TD*%
D18*
%TO.P,H2,1*%
%TO.N,GND*%
X192485000Y-69920000D03*
%TD*%
%TO.P,H3,1*%
%TO.N,GND*%
X192485000Y-121920000D03*
%TD*%
D19*
%TO.P,C2,1*%
%TO.N,GND*%
X190485000Y-104920000D03*
%TO.P,C2,2*%
%TO.N,Vcc*%
X190485000Y-99920000D03*
%TD*%
D10*
%TO.P,74HC595,1*%
%TO.N,Net-(U1-Pad1)*%
X178485000Y-76920000D03*
D11*
%TO.P,74HC595,9*%
%TO.N,Net-(U1-Pad9)*%
X186105000Y-94700000D03*
%TO.P,74HC595,2*%
%TO.N,Net-(U1-Pad2)*%
X178485000Y-79460000D03*
%TO.P,74HC595,10*%
%TO.N,Net-(A1-Pad19)*%
X186105000Y-92160000D03*
%TO.P,74HC595,3*%
%TO.N,Net-(U1-Pad3)*%
X178485000Y-82000000D03*
%TO.P,74HC595,11*%
%TO.N,Net-(A1-Pad15)*%
X186105000Y-89620000D03*
%TO.P,74HC595,4*%
%TO.N,Net-(U1-Pad4)*%
X178485000Y-84540000D03*
%TO.P,74HC595,12*%
%TO.N,Net-(A1-Pad14)*%
X186105000Y-87080000D03*
%TO.P,74HC595,5*%
%TO.N,Net-(U1-Pad5)*%
X178485000Y-87080000D03*
%TO.P,74HC595,13*%
%TO.N,Net-(A1-Pad20)*%
X186105000Y-84540000D03*
%TO.P,74HC595,6*%
%TO.N,Net-(U1-Pad6)*%
X178485000Y-89620000D03*
%TO.P,74HC595,14*%
%TO.N,Net-(A1-Pad13)*%
X186105000Y-82000000D03*
%TO.P,74HC595,7*%
%TO.N,Net-(U1-Pad7)*%
X178485000Y-92160000D03*
%TO.P,74HC595,15*%
%TO.N,Net-(U1-Pad15)*%
X186105000Y-79460000D03*
%TO.P,74HC595,8*%
%TO.N,GND*%
X178485000Y-94700000D03*
%TO.P,74HC595,16*%
%TO.N,Vcc*%
X186105000Y-76920000D03*
%TD*%
D10*
%TO.P,74HC595,1*%
%TO.N,Net-(U2-Pad1)*%
X178485000Y-99920000D03*
D11*
%TO.P,74HC595,9*%
%TO.N,Net-(U2-Pad9)*%
X186105000Y-117700000D03*
%TO.P,74HC595,2*%
%TO.N,Net-(U2-Pad2)*%
X178485000Y-102460000D03*
%TO.P,74HC595,10*%
%TO.N,Net-(A1-Pad19)*%
X186105000Y-115160000D03*
%TO.P,74HC595,3*%
%TO.N,Net-(U2-Pad3)*%
X178485000Y-105000000D03*
%TO.P,74HC595,11*%
%TO.N,Net-(A1-Pad15)*%
X186105000Y-112620000D03*
%TO.P,74HC595,4*%
%TO.N,Net-(U2-Pad4)*%
X178485000Y-107540000D03*
%TO.P,74HC595,12*%
%TO.N,Net-(A1-Pad14)*%
X186105000Y-110080000D03*
%TO.P,74HC595,5*%
%TO.N,Net-(U2-Pad5)*%
X178485000Y-110080000D03*
%TO.P,74HC595,13*%
%TO.N,Net-(A1-Pad20)*%
X186105000Y-107540000D03*
%TO.P,74HC595,6*%
%TO.N,Net-(U2-Pad6)*%
X178485000Y-112620000D03*
%TO.P,74HC595,14*%
%TO.N,Net-(U1-Pad9)*%
X186105000Y-105000000D03*
%TO.P,74HC595,7*%
%TO.N,Net-(U2-Pad7)*%
X178485000Y-115160000D03*
%TO.P,74HC595,15*%
%TO.N,Net-(U2-Pad15)*%
X186105000Y-102460000D03*
%TO.P,74HC595,8*%
%TO.N,GND*%
X178485000Y-117700000D03*
%TO.P,74HC595,16*%
%TO.N,Vcc*%
X186105000Y-99920000D03*
%TD*%
D20*
%TO.N,Net-(A1-Pad15)*%
X182485000Y-91920000D03*
%TO.N,Net-(A1-Pad14)*%
X183485000Y-89920000D03*
%TO.N,Net-(A1-Pad20)*%
X157139990Y-87574990D03*
%TO.N,Net-(A1-Pad19)*%
X181485000Y-93920000D03*
%TD*%
D21*
%TO.N,Net-(A1-Pad15)*%
X186105000Y-112620000D02*
X182485000Y-109000000D01*
X182485000Y-109000000D02*
X182485000Y-94920000D01*
X182485000Y-94920000D02*
X182485000Y-92920000D01*
X182485000Y-92920000D02*
X182485000Y-91920000D01*
X182485000Y-91920000D02*
X182485000Y-91920000D01*
%TO.N,Net-(A1-Pad14)*%
X186105000Y-110080000D02*
X183485000Y-107460000D01*
X183485000Y-107460000D02*
X183485000Y-94920000D01*
X183485000Y-94920000D02*
X183485000Y-94920000D01*
X183485000Y-94920000D02*
X183485000Y-89920000D01*
X183485000Y-89920000D02*
X183485000Y-89920000D01*
%TO.N,GND*%
X191299998Y-69920000D02*
X192485000Y-69920000D01*
X166485000Y-75920000D02*
X166610001Y-75794999D01*
X182705000Y-121920000D02*
X192485000Y-121920000D01*
X178485000Y-117700000D02*
X182705000Y-121920000D01*
X135505000Y-91160000D02*
X130865000Y-86520000D01*
X130865000Y-76360000D02*
X130425000Y-75920000D01*
X100485000Y-76920000D02*
X100979990Y-77414990D01*
X100485000Y-69920000D02*
X100485000Y-76920000D01*
X164990010Y-77414990D02*
X166485000Y-75920000D01*
X128979990Y-77365010D02*
X128979990Y-77414990D01*
X130425000Y-75920000D02*
X128979990Y-77365010D01*
X100979990Y-77414990D02*
X128979990Y-77414990D01*
X130865000Y-78289980D02*
X129990010Y-77414990D01*
X130865000Y-86520000D02*
X130865000Y-78289980D01*
X129990010Y-77414990D02*
X164990010Y-77414990D01*
X128979990Y-77414990D02*
X129990010Y-77414990D01*
%TO.N,Net-(A1-Pad21)*%
X115185000Y-91160000D02*
X116310001Y-90034999D01*
X134379999Y-91700001D02*
X149079998Y-106400000D01*
X134379999Y-90909997D02*
X134379999Y-91700001D01*
X133505001Y-90034999D02*
X134379999Y-90909997D01*
X116310001Y-90034999D02*
X133505001Y-90034999D01*
X149079998Y-106400000D02*
X151245000Y-106400000D01*
%TO.N,Net-(A1-Pad20)*%
X186105000Y-107540000D02*
X184529989Y-105964989D01*
X169287877Y-87574990D02*
X170907867Y-85955000D01*
X157139990Y-87574990D02*
X169287877Y-87574990D01*
X184690000Y-85955000D02*
X170907867Y-85955000D01*
X186105000Y-84540000D02*
X184690000Y-85955000D01*
X184529989Y-86115011D02*
X184690000Y-85955000D01*
X184529989Y-105964989D02*
X184529989Y-86115011D01*
%TO.N,Net-(A1-Pad19)*%
X185608590Y-92160000D02*
X186105000Y-92160000D01*
X186105000Y-115160000D02*
X181485000Y-110540000D01*
X181485000Y-110540000D02*
X181485000Y-94920000D01*
X181485000Y-94920000D02*
X181485000Y-94920000D01*
X181485000Y-94920000D02*
X181485000Y-93920000D01*
X181485000Y-93920000D02*
X181485000Y-93920000D01*
X184979999Y-114034999D02*
X186105000Y-115160000D01*
X142359999Y-105045001D02*
X142359999Y-109460001D01*
X146934997Y-114034999D02*
X184979999Y-114034999D01*
X112115002Y-93170002D02*
X130485000Y-93170002D01*
X142359999Y-109460001D02*
X146934997Y-114034999D01*
X130485000Y-93170002D02*
X142359999Y-105045001D01*
X110105000Y-91160000D02*
X112115002Y-93170002D01*
%TO.N,Net-(U1-Pad15)*%
X174230001Y-78334999D02*
X166485000Y-86080000D01*
X184979999Y-78334999D02*
X174230001Y-78334999D01*
X186105000Y-79460000D02*
X184979999Y-78334999D01*
%TO.N,Net-(U1-Pad9)*%
X184979999Y-95825001D02*
X186105000Y-94700000D01*
X184979999Y-103874999D02*
X184979999Y-95825001D01*
X186105000Y-105000000D02*
X184979999Y-103874999D01*
%TO.N,Vcc*%
X190485000Y-76920000D02*
X186105000Y-76920000D01*
X190485000Y-99920000D02*
X186105000Y-99920000D01*
X189359999Y-98794999D02*
X190485000Y-99920000D01*
X189359999Y-78045001D02*
X189359999Y-98794999D01*
X190485000Y-76920000D02*
X189359999Y-78045001D01*
X151225000Y-108920000D02*
X151245000Y-108940000D01*
X143485000Y-108920000D02*
X151225000Y-108920000D01*
X166893600Y-85034990D02*
X154370010Y-85034990D01*
X176133591Y-75794999D02*
X166893600Y-85034990D01*
X184979999Y-75794999D02*
X176133591Y-75794999D01*
X186105000Y-76920000D02*
X184979999Y-75794999D01*
X154370010Y-85034990D02*
X153485000Y-85920000D01*
X153485000Y-106700000D02*
X151245000Y-108940000D01*
X153485000Y-85920000D02*
X153485000Y-106700000D01*
X143485000Y-104220000D02*
X143485000Y-108920000D01*
X130425000Y-91160000D02*
X143485000Y-104220000D01*
%TD*%
M02*
