%TF.GenerationSoftware,KiCad,Pcbnew,5.1.10*%
%TF.CreationDate,2021-08-06T14:58:04+02:00*%
%TF.ProjectId,EEPROM-Programmer,45455052-4f4d-42d5-9072-6f6772616d6d,rev?*%
%TF.SameCoordinates,Original*%
%TF.FileFunction,Copper,L2,Bot*%
%TF.FilePolarity,Positive*%
%FSLAX46Y46*%
G04 Gerber Fmt 4.6, Leading zero omitted, Abs format (unit mm)*
G04 Created by KiCad (PCBNEW 5.1.10) date 2021-08-06 14:58:04*
%MOMM*%
%LPD*%
G01*
G04 APERTURE LIST*
%TA.AperFunction,ComponentPad*%
%ADD10R,1.600000X1.600000*%
%TD*%
%TA.AperFunction,ComponentPad*%
%ADD11O,1.600000X1.600000*%
%TD*%
%TA.AperFunction,ComponentPad*%
%ADD12O,1.400000X1.400000*%
%TD*%
%TA.AperFunction,ComponentPad*%
%ADD13C,1.400000*%
%TD*%
%TA.AperFunction,ComponentPad*%
%ADD14C,1.800000*%
%TD*%
%TA.AperFunction,ComponentPad*%
%ADD15R,1.800000X1.800000*%
%TD*%
%TA.AperFunction,ComponentPad*%
%ADD16O,2.000000X1.440000*%
%TD*%
%TA.AperFunction,ComponentPad*%
%ADD17R,2.000000X1.440000*%
%TD*%
%TA.AperFunction,ComponentPad*%
%ADD18C,5.400000*%
%TD*%
%TA.AperFunction,ComponentPad*%
%ADD19C,1.600000*%
%TD*%
%TA.AperFunction,ViaPad*%
%ADD20C,0.800000*%
%TD*%
%TA.AperFunction,Conductor*%
%ADD21C,0.250000*%
%TD*%
G04 APERTURE END LIST*
D10*
%TO.P,Arduino Nano,1*%
%TO.N,Net-(A1-Pad1)*%
X138045000Y-75920000D03*
D11*
%TO.P,Arduino Nano,17*%
%TO.N,Net-(A1-Pad17)*%
X105025000Y-91160000D03*
%TO.P,Arduino Nano,2*%
%TO.N,Net-(A1-Pad2)*%
X135505000Y-75920000D03*
%TO.P,Arduino Nano,18*%
%TO.N,Net-(A1-Pad18)*%
X107565000Y-91160000D03*
%TO.P,Arduino Nano,3*%
%TO.N,Net-(A1-Pad3)*%
X132965000Y-75920000D03*
%TO.P,Arduino Nano,19*%
%TO.N,Net-(A1-Pad19)*%
X110105000Y-91160000D03*
%TO.P,Arduino Nano,4*%
%TO.N,GND*%
X130425000Y-75920000D03*
%TO.P,Arduino Nano,20*%
%TO.N,Net-(A1-Pad20)*%
X112645000Y-91160000D03*
%TO.P,Arduino Nano,5*%
%TO.N,Net-(A1-Pad5)*%
X127885000Y-75920000D03*
%TO.P,Arduino Nano,21*%
%TO.N,Net-(A1-Pad21)*%
X115185000Y-91160000D03*
%TO.P,Arduino Nano,6*%
%TO.N,Net-(A1-Pad6)*%
X125345000Y-75920000D03*
%TO.P,Arduino Nano,22*%
%TO.N,Net-(A1-Pad22)*%
X117725000Y-91160000D03*
%TO.P,Arduino Nano,7*%
%TO.N,Net-(A1-Pad7)*%
X122805000Y-75920000D03*
%TO.P,Arduino Nano,23*%
%TO.N,Net-(A1-Pad23)*%
X120265000Y-91160000D03*
%TO.P,Arduino Nano,8*%
%TO.N,Net-(A1-Pad8)*%
X120265000Y-75920000D03*
%TO.P,Arduino Nano,24*%
%TO.N,Net-(A1-Pad24)*%
X122805000Y-91160000D03*
%TO.P,Arduino Nano,9*%
%TO.N,Net-(A1-Pad9)*%
X117725000Y-75920000D03*
%TO.P,Arduino Nano,25*%
%TO.N,Net-(A1-Pad25)*%
X125345000Y-91160000D03*
%TO.P,Arduino Nano,10*%
%TO.N,Net-(A1-Pad10)*%
X115185000Y-75920000D03*
%TO.P,Arduino Nano,26*%
%TO.N,Net-(A1-Pad26)*%
X127885000Y-91160000D03*
%TO.P,Arduino Nano,11*%
%TO.N,Net-(A1-Pad11)*%
X112645000Y-75920000D03*
%TO.P,Arduino Nano,27*%
%TO.N,Vcc*%
X130425000Y-91160000D03*
%TO.P,Arduino Nano,12*%
%TO.N,Net-(A1-Pad12)*%
X110105000Y-75920000D03*
%TO.P,Arduino Nano,28*%
%TO.N,Net-(A1-Pad28)*%
X132965000Y-91160000D03*
%TO.P,Arduino Nano,13*%
%TO.N,Net-(A1-Pad13)*%
X107565000Y-75920000D03*
%TO.P,Arduino Nano,29*%
%TO.N,GND*%
X135505000Y-91160000D03*
%TO.P,Arduino Nano,14*%
%TO.N,Net-(A1-Pad14)*%
X105025000Y-75920000D03*
%TO.P,Arduino Nano,30*%
%TO.N,Net-(A1-Pad30)*%
X138045000Y-91160000D03*
%TO.P,Arduino Nano,15*%
%TO.N,Net-(A1-Pad15)*%
X102485000Y-75920000D03*
%TO.P,Arduino Nano,16*%
%TO.N,Net-(A1-Pad16)*%
X102485000Y-91160000D03*
%TD*%
D12*
%TO.P,220,2*%
%TO.N,Net-(D1-Pad2)*%
X102485000Y-102540000D03*
D13*
%TO.P,220,1*%
%TO.N,Net-(A1-Pad16)*%
X102485000Y-94920000D03*
%TD*%
D14*
%TO.P,D1,2*%
%TO.N,Net-(D1-Pad2)*%
X102485000Y-106380000D03*
D15*
%TO.P,D1,1*%
%TO.N,GND*%
X102485000Y-108920000D03*
%TD*%
D16*
%TO.P,28C256,15*%
%TO.N,Net-(A1-Pad8)*%
X151245000Y-75920000D03*
%TO.P,28C256,14*%
%TO.N,GND*%
X166485000Y-75920000D03*
%TO.P,28C256,16*%
%TO.N,Net-(A1-Pad9)*%
X151245000Y-78460000D03*
%TO.P,28C256,13*%
%TO.N,Net-(A1-Pad7)*%
X166485000Y-78460000D03*
%TO.P,28C256,17*%
%TO.N,Net-(A1-Pad10)*%
X151245000Y-81000000D03*
%TO.P,28C256,12*%
%TO.N,Net-(A1-Pad6)*%
X166485000Y-81000000D03*
%TO.P,28C256,18*%
%TO.N,Net-(A1-Pad11)*%
X151245000Y-83540000D03*
%TO.P,28C256,11*%
%TO.N,Net-(A1-Pad5)*%
X166485000Y-83540000D03*
%TO.P,28C256,19*%
%TO.N,Net-(A1-Pad12)*%
X151245000Y-86080000D03*
%TO.P,28C256,10*%
%TO.N,Net-(U1-Pad15)*%
X166485000Y-86080000D03*
%TO.P,28C256,20*%
%TO.N,Net-(A1-Pad23)*%
X151245000Y-88620000D03*
%TO.P,28C256,9*%
%TO.N,Net-(U1-Pad1)*%
X166485000Y-88620000D03*
%TO.P,28C256,21*%
%TO.N,Net-(U2-Pad2)*%
X151245000Y-91160000D03*
%TO.P,28C256,8*%
%TO.N,Net-(U1-Pad2)*%
X166485000Y-91160000D03*
%TO.P,28C256,22*%
%TO.N,Net-(A1-Pad22)*%
X151245000Y-93700000D03*
%TO.P,28C256,7*%
%TO.N,Net-(U1-Pad3)*%
X166485000Y-93700000D03*
%TO.P,28C256,23*%
%TO.N,Net-(U2-Pad3)*%
X151245000Y-96240000D03*
%TO.P,28C256,6*%
%TO.N,Net-(U1-Pad4)*%
X166485000Y-96240000D03*
%TO.P,28C256,24*%
%TO.N,Net-(U2-Pad1)*%
X151245000Y-98780000D03*
%TO.P,28C256,5*%
%TO.N,Net-(U1-Pad5)*%
X166485000Y-98780000D03*
%TO.P,28C256,25*%
%TO.N,Net-(U2-Pad15)*%
X151245000Y-101320000D03*
%TO.P,28C256,4*%
%TO.N,Net-(U1-Pad6)*%
X166485000Y-101320000D03*
%TO.P,28C256,26*%
%TO.N,Net-(U2-Pad5)*%
X151245000Y-103860000D03*
%TO.P,28C256,3*%
%TO.N,Net-(U1-Pad7)*%
X166485000Y-103860000D03*
%TO.P,28C256,27*%
%TO.N,Net-(A1-Pad21)*%
X151245000Y-106400000D03*
%TO.P,28C256,2*%
%TO.N,Net-(U2-Pad4)*%
X166485000Y-106400000D03*
%TO.P,28C256,28*%
%TO.N,Vcc*%
X151245000Y-108940000D03*
D17*
%TO.P,28C256,1*%
%TO.N,Net-(U2-Pad6)*%
X166485000Y-108940000D03*
%TD*%
D18*
%TO.P,H4,1*%
%TO.N,GND*%
X100485000Y-121920000D03*
%TD*%
%TO.P,H1,1*%
%TO.N,GND*%
X100485000Y-69920000D03*
%TD*%
D19*
%TO.P,C3,1*%
%TO.N,GND*%
X143485000Y-113920000D03*
%TO.P,C3,2*%
%TO.N,Vcc*%
X143485000Y-108920000D03*
%TD*%
%TO.P,C1,1*%
%TO.N,GND*%
X190485000Y-81920000D03*
%TO.P,C1,2*%
%TO.N,Vcc*%
X190485000Y-76920000D03*
%TD*%
D18*
%TO.P,H2,1*%
%TO.N,GND*%
X192485000Y-69920000D03*
%TD*%
%TO.P,H3,1*%
%TO.N,GND*%
X192485000Y-121920000D03*
%TD*%
D19*
%TO.P,C2,1*%
%TO.N,GND*%
X190485000Y-104920000D03*
%TO.P,C2,2*%
%TO.N,Vcc*%
X190485000Y-99920000D03*
%TD*%
D10*
%TO.P,74HC595,1*%
%TO.N,Net-(U1-Pad1)*%
X178485000Y-76920000D03*
D11*
%TO.P,74HC595,9*%
%TO.N,Net-(U1-Pad9)*%
X186105000Y-94700000D03*
%TO.P,74HC595,2*%
%TO.N,Net-(U1-Pad2)*%
X178485000Y-79460000D03*
%TO.P,74HC595,10*%
%TO.N,Net-(A1-Pad19)*%
X186105000Y-92160000D03*
%TO.P,74HC595,3*%
%TO.N,Net-(U1-Pad3)*%
X178485000Y-82000000D03*
%TO.P,74HC595,11*%
%TO.N,Net-(A1-Pad15)*%
X186105000Y-89620000D03*
%TO.P,74HC595,4*%
%TO.N,Net-(U1-Pad4)*%
X178485000Y-84540000D03*
%TO.P,74HC595,12*%
%TO.N,Net-(A1-Pad14)*%
X186105000Y-87080000D03*
%TO.P,74HC595,5*%
%TO.N,Net-(U1-Pad5)*%
X178485000Y-87080000D03*
%TO.P,74HC595,13*%
%TO.N,Net-(A1-Pad20)*%
X186105000Y-84540000D03*
%TO.P,74HC595,6*%
%TO.N,Net-(U1-Pad6)*%
X178485000Y-89620000D03*
%TO.P,74HC595,14*%
%TO.N,Net-(A1-Pad13)*%
X186105000Y-82000000D03*
%TO.P,74HC595,7*%
%TO.N,Net-(U1-Pad7)*%
X178485000Y-92160000D03*
%TO.P,74HC595,15*%
%TO.N,Net-(U1-Pad15)*%
X186105000Y-79460000D03*
%TO.P,74HC595,8*%
%TO.N,GND*%
X178485000Y-94700000D03*
%TO.P,74HC595,16*%
%TO.N,Vcc*%
X186105000Y-76920000D03*
%TD*%
D10*
%TO.P,74HC595,1*%
%TO.N,Net-(U2-Pad1)*%
X178485000Y-99920000D03*
D11*
%TO.P,74HC595,9*%
%TO.N,Net-(U2-Pad9)*%
X186105000Y-117700000D03*
%TO.P,74HC595,2*%
%TO.N,Net-(U2-Pad2)*%
X178485000Y-102460000D03*
%TO.P,74HC595,10*%
%TO.N,Net-(A1-Pad19)*%
X186105000Y-115160000D03*
%TO.P,74HC595,3*%
%TO.N,Net-(U2-Pad3)*%
X178485000Y-105000000D03*
%TO.P,74HC595,11*%
%TO.N,Net-(A1-Pad15)*%
X186105000Y-112620000D03*
%TO.P,74HC595,4*%
%TO.N,Net-(U2-Pad4)*%
X178485000Y-107540000D03*
%TO.P,74HC595,12*%
%TO.N,Net-(A1-Pad14)*%
X186105000Y-110080000D03*
%TO.P,74HC595,5*%
%TO.N,Net-(U2-Pad5)*%
X178485000Y-110080000D03*
%TO.P,74HC595,13*%
%TO.N,Net-(A1-Pad20)*%
X186105000Y-107540000D03*
%TO.P,74HC595,6*%
%TO.N,Net-(U2-Pad6)*%
X178485000Y-112620000D03*
%TO.P,74HC595,14*%
%TO.N,Net-(U1-Pad9)*%
X186105000Y-105000000D03*
%TO.P,74HC595,7*%
%TO.N,Net-(U2-Pad7)*%
X178485000Y-115160000D03*
%TO.P,74HC595,15*%
%TO.N,Net-(U2-Pad15)*%
X186105000Y-102460000D03*
%TO.P,74HC595,8*%
%TO.N,GND*%
X178485000Y-117700000D03*
%TO.P,74HC595,16*%
%TO.N,Vcc*%
X186105000Y-99920000D03*
%TD*%
D20*
%TO.N,Net-(A1-Pad15)*%
X182485000Y-91920000D03*
%TO.N,Net-(A1-Pad14)*%
X183485000Y-89920000D03*
%TO.N,Net-(A1-Pad20)*%
X157139990Y-87574990D03*
%TO.N,Net-(A1-Pad19)*%
X181485000Y-93920000D03*
%TD*%
D21*
%TO.N,Net-(A1-Pad16)*%
X102485000Y-91160000D02*
X102485000Y-94920000D01*
%TO.N,Net-(A1-Pad15)*%
X183805000Y-91920000D02*
X182485000Y-91920000D01*
X186105000Y-89620000D02*
X183805000Y-91920000D01*
X187680011Y-88044989D02*
X186105000Y-89620000D01*
X187680010Y-75193598D02*
X187680011Y-88044989D01*
X184411354Y-71924942D02*
X187680010Y-75193598D01*
X106480058Y-71924942D02*
X184411354Y-71924942D01*
X102485000Y-75920000D02*
X106480058Y-71924942D01*
%TO.N,Net-(A1-Pad14)*%
X183485000Y-89700000D02*
X183485000Y-89920000D01*
X186105000Y-87080000D02*
X183485000Y-89700000D01*
X187230001Y-85954999D02*
X186105000Y-87080000D01*
X187230001Y-75379999D02*
X187230001Y-85954999D01*
X184224954Y-72374952D02*
X187230001Y-75379999D01*
X108570048Y-72374952D02*
X184224954Y-72374952D01*
X105025000Y-75920000D02*
X108570048Y-72374952D01*
%TO.N,GND*%
X166747877Y-76265010D02*
X165772143Y-76265010D01*
X190485000Y-81920000D02*
X192485000Y-79920000D01*
X192485000Y-121920000D02*
X179485000Y-121920000D01*
X100485000Y-69920000D02*
X192485000Y-69920000D01*
X100485000Y-76694998D02*
X100485000Y-69920000D01*
X190485000Y-104920000D02*
X192485000Y-102920000D01*
X192485000Y-121920000D02*
X192485000Y-102920000D01*
X143485000Y-113920000D02*
X143485000Y-118920000D01*
X143485000Y-118920000D02*
X140485000Y-121920000D01*
X179485000Y-121920000D02*
X140485000Y-121920000D01*
X99201296Y-121920000D02*
X100485000Y-121920000D01*
X140485000Y-121920000D02*
X99201296Y-121920000D01*
X178485000Y-94700000D02*
X180485000Y-96700000D01*
X191265000Y-96700000D02*
X192485000Y-97920000D01*
X180485000Y-96700000D02*
X191265000Y-96700000D01*
X192485000Y-97920000D02*
X192485000Y-69920000D01*
X192485000Y-102920000D02*
X192485000Y-97920000D01*
X102485000Y-108920000D02*
X100485000Y-110920000D01*
X100485000Y-110920000D02*
X100485000Y-76694998D01*
X100485000Y-121920000D02*
X100485000Y-110920000D01*
%TO.N,Net-(A1-Pad13)*%
X176929962Y-72824962D02*
X186105000Y-82000000D01*
X110660038Y-72824962D02*
X176929962Y-72824962D01*
X107565000Y-75920000D02*
X110660038Y-72824962D01*
%TO.N,Net-(A1-Pad12)*%
X110105000Y-75920000D02*
X120265000Y-86080000D01*
X120265000Y-86080000D02*
X151245000Y-86080000D01*
%TO.N,Net-(A1-Pad11)*%
X112645000Y-75920000D02*
X120265000Y-83540000D01*
X120265000Y-83540000D02*
X151245000Y-83540000D01*
%TO.N,Net-(A1-Pad10)*%
X115185000Y-75920000D02*
X120265000Y-81000000D01*
X120265000Y-81000000D02*
X151245000Y-81000000D01*
%TO.N,Net-(A1-Pad9)*%
X117725000Y-75920000D02*
X120265000Y-78460000D01*
X120265000Y-78460000D02*
X151245000Y-78460000D01*
%TO.N,Net-(A1-Pad8)*%
X149219981Y-77945019D02*
X151245000Y-75920000D01*
X122290019Y-77945019D02*
X149219981Y-77945019D01*
X120265000Y-75920000D02*
X122290019Y-77945019D01*
%TO.N,Net-(A1-Pad23)*%
X120265000Y-91160000D02*
X122805000Y-88620000D01*
X122805000Y-88620000D02*
X151245000Y-88620000D01*
%TO.N,Net-(A1-Pad7)*%
X162199990Y-74174990D02*
X166485000Y-78460000D01*
X150230010Y-74174990D02*
X162199990Y-74174990D01*
X146909990Y-77495010D02*
X150230010Y-74174990D01*
X124380010Y-77495010D02*
X146909990Y-77495010D01*
X122805000Y-75920000D02*
X124380010Y-77495010D01*
%TO.N,Net-(A1-Pad22)*%
X117725000Y-91160000D02*
X120265000Y-93700000D01*
X120265000Y-93700000D02*
X151245000Y-93700000D01*
%TO.N,Net-(A1-Pad6)*%
X126470001Y-77045001D02*
X125345000Y-75920000D01*
X150043609Y-73724981D02*
X146723589Y-77045001D01*
X162532114Y-73724981D02*
X150043609Y-73724981D01*
X166222123Y-77414990D02*
X162532114Y-73724981D01*
X167197857Y-77414990D02*
X166222123Y-77414990D01*
X167810010Y-78027143D02*
X167197857Y-77414990D01*
X167810010Y-79674990D02*
X167810010Y-78027143D01*
X146723589Y-77045001D02*
X126470001Y-77045001D01*
X166485000Y-81000000D02*
X167810010Y-79674990D01*
%TO.N,Net-(A1-Pad5)*%
X168260019Y-81764981D02*
X166485000Y-83540000D01*
X168260019Y-75237152D02*
X168260019Y-81764981D01*
X166297839Y-73274972D02*
X168260019Y-75237152D01*
X130530028Y-73274972D02*
X166297839Y-73274972D01*
X127885000Y-75920000D02*
X130530028Y-73274972D01*
%TO.N,Net-(A1-Pad20)*%
X157139990Y-87574990D02*
X157139990Y-87574990D01*
X112645000Y-91160000D02*
X116230010Y-87574990D01*
X116230010Y-87574990D02*
X157139990Y-87574990D01*
%TO.N,Net-(A1-Pad19)*%
X184345000Y-93920000D02*
X186105000Y-92160000D01*
X181485000Y-93920000D02*
X184345000Y-93920000D01*
%TO.N,Net-(U1-Pad7)*%
X166785000Y-103860000D02*
X178485000Y-92160000D01*
X166485000Y-103860000D02*
X166785000Y-103860000D01*
%TO.N,Net-(U1-Pad6)*%
X166785000Y-101320000D02*
X178485000Y-89620000D01*
X166485000Y-101320000D02*
X166785000Y-101320000D01*
%TO.N,Net-(U1-Pad5)*%
X166785000Y-98780000D02*
X178485000Y-87080000D01*
X166485000Y-98780000D02*
X166785000Y-98780000D01*
%TO.N,Net-(U1-Pad4)*%
X166785000Y-96240000D02*
X178485000Y-84540000D01*
X166485000Y-96240000D02*
X166785000Y-96240000D01*
%TO.N,Net-(U1-Pad3)*%
X166785000Y-93700000D02*
X178485000Y-82000000D01*
X166485000Y-93700000D02*
X166785000Y-93700000D01*
%TO.N,Net-(U1-Pad2)*%
X166785000Y-91160000D02*
X178485000Y-79460000D01*
X166485000Y-91160000D02*
X166785000Y-91160000D01*
%TO.N,Net-(U1-Pad1)*%
X166785000Y-88620000D02*
X178485000Y-76920000D01*
X166485000Y-88620000D02*
X166785000Y-88620000D01*
%TO.N,Net-(U2-Pad15)*%
X157370010Y-107445010D02*
X151245000Y-101320000D01*
X179899999Y-108665001D02*
X180065000Y-108500000D01*
X177944999Y-108665001D02*
X179899999Y-108665001D01*
X176725008Y-107445010D02*
X177944999Y-108665001D01*
X157370010Y-107445010D02*
X176725008Y-107445010D01*
X186105000Y-102460000D02*
X180065000Y-108500000D01*
%TO.N,Net-(U2-Pad6)*%
X174805000Y-108940000D02*
X178485000Y-112620000D01*
X166485000Y-108940000D02*
X174805000Y-108940000D01*
%TO.N,Net-(U2-Pad5)*%
X179025001Y-113745001D02*
X177944999Y-113745001D01*
X177944999Y-113745001D02*
X174184999Y-109985001D01*
X179610001Y-113160001D02*
X179025001Y-113745001D01*
X157370001Y-109985001D02*
X151245000Y-103860000D01*
X179610001Y-111205001D02*
X179610001Y-113160001D01*
X174184999Y-109985001D02*
X157370001Y-109985001D01*
X178485000Y-110080000D02*
X179610001Y-111205001D01*
%TO.N,Net-(U2-Pad4)*%
X177345000Y-106400000D02*
X178485000Y-107540000D01*
X166485000Y-106400000D02*
X177345000Y-106400000D01*
%TO.N,Net-(U2-Pad3)*%
X177944999Y-118825001D02*
X170485000Y-111365002D01*
X186645001Y-118825001D02*
X177944999Y-118825001D01*
X187230001Y-118240001D02*
X186645001Y-118825001D01*
X186645001Y-101334999D02*
X187230001Y-101919999D01*
X187230001Y-101919999D02*
X187230001Y-118240001D01*
X182150001Y-101334999D02*
X186645001Y-101334999D01*
X178485000Y-105000000D02*
X182150001Y-101334999D01*
X149919990Y-97565010D02*
X151245000Y-96240000D01*
X149919990Y-109372857D02*
X149919990Y-97565010D01*
X151912135Y-111365002D02*
X149919990Y-109372857D01*
X170485000Y-111365002D02*
X151912135Y-111365002D01*
%TO.N,Net-(U2-Pad2)*%
X149469981Y-109559258D02*
X151830723Y-111920000D01*
X149469980Y-96257153D02*
X149469981Y-109559258D01*
X152570010Y-94132857D02*
X151507877Y-95194990D01*
X152570010Y-92485010D02*
X152570010Y-94132857D01*
X150532143Y-95194990D02*
X149469980Y-96257153D01*
X151507877Y-95194990D02*
X150532143Y-95194990D01*
X151245000Y-91160000D02*
X152570010Y-92485010D01*
X182150001Y-98794999D02*
X178485000Y-102460000D01*
X186645001Y-98794999D02*
X182150001Y-98794999D01*
X187680011Y-118426401D02*
X187680011Y-99830009D01*
X186831402Y-119275010D02*
X187680011Y-118426401D01*
X187680011Y-99830009D02*
X186645001Y-98794999D01*
X177758599Y-119275011D02*
X186831402Y-119275010D01*
X170403588Y-111920000D02*
X177758599Y-119275011D01*
X151830723Y-111920000D02*
X170403588Y-111920000D01*
%TO.N,Net-(U2-Pad1)*%
X157370010Y-104905010D02*
X151245000Y-98780000D01*
X173499990Y-104905010D02*
X157370010Y-104905010D01*
X178485000Y-99920000D02*
X173499990Y-104905010D01*
%TO.N,Net-(D1-Pad2)*%
X102485000Y-102540000D02*
X102485000Y-106380000D01*
%TD*%
M02*
