%TF.GenerationSoftware,KiCad,Pcbnew,5.1.10*%
%TF.CreationDate,2021-08-06T14:58:04+02:00*%
%TF.ProjectId,EEPROM-Programmer,45455052-4f4d-42d5-9072-6f6772616d6d,rev?*%
%TF.SameCoordinates,Original*%
%TF.FileFunction,Soldermask,Top*%
%TF.FilePolarity,Negative*%
%FSLAX46Y46*%
G04 Gerber Fmt 4.6, Leading zero omitted, Abs format (unit mm)*
G04 Created by KiCad (PCBNEW 5.1.10) date 2021-08-06 14:58:04*
%MOMM*%
%LPD*%
G01*
G04 APERTURE LIST*
%ADD10R,1.600000X1.600000*%
%ADD11O,1.600000X1.600000*%
%ADD12O,1.400000X1.400000*%
%ADD13C,1.400000*%
%ADD14C,1.800000*%
%ADD15R,1.800000X1.800000*%
%ADD16O,2.000000X1.440000*%
%ADD17R,2.000000X1.440000*%
%ADD18C,5.400000*%
%ADD19C,1.600000*%
G04 APERTURE END LIST*
D10*
%TO.C,Arduino Nano*%
X138045000Y-75920000D03*
D11*
X105025000Y-91160000D03*
X135505000Y-75920000D03*
X107565000Y-91160000D03*
X132965000Y-75920000D03*
X110105000Y-91160000D03*
X130425000Y-75920000D03*
X112645000Y-91160000D03*
X127885000Y-75920000D03*
X115185000Y-91160000D03*
X125345000Y-75920000D03*
X117725000Y-91160000D03*
X122805000Y-75920000D03*
X120265000Y-91160000D03*
X120265000Y-75920000D03*
X122805000Y-91160000D03*
X117725000Y-75920000D03*
X125345000Y-91160000D03*
X115185000Y-75920000D03*
X127885000Y-91160000D03*
X112645000Y-75920000D03*
X130425000Y-91160000D03*
X110105000Y-75920000D03*
X132965000Y-91160000D03*
X107565000Y-75920000D03*
X135505000Y-91160000D03*
X105025000Y-75920000D03*
X138045000Y-91160000D03*
X102485000Y-75920000D03*
X102485000Y-91160000D03*
%TD*%
D12*
%TO.C,220*%
X102485000Y-102540000D03*
D13*
X102485000Y-94920000D03*
%TD*%
D14*
%TO.C,D1*%
X102485000Y-106380000D03*
D15*
X102485000Y-108920000D03*
%TD*%
D16*
%TO.C,28C256*%
X151245000Y-75920000D03*
X166485000Y-75920000D03*
X151245000Y-78460000D03*
X166485000Y-78460000D03*
X151245000Y-81000000D03*
X166485000Y-81000000D03*
X151245000Y-83540000D03*
X166485000Y-83540000D03*
X151245000Y-86080000D03*
X166485000Y-86080000D03*
X151245000Y-88620000D03*
X166485000Y-88620000D03*
X151245000Y-91160000D03*
X166485000Y-91160000D03*
X151245000Y-93700000D03*
X166485000Y-93700000D03*
X151245000Y-96240000D03*
X166485000Y-96240000D03*
X151245000Y-98780000D03*
X166485000Y-98780000D03*
X151245000Y-101320000D03*
X166485000Y-101320000D03*
X151245000Y-103860000D03*
X166485000Y-103860000D03*
X151245000Y-106400000D03*
X166485000Y-106400000D03*
X151245000Y-108940000D03*
D17*
X166485000Y-108940000D03*
%TD*%
D18*
%TO.C,H4*%
X100485000Y-121920000D03*
%TD*%
%TO.C,H1*%
X100485000Y-69920000D03*
%TD*%
D19*
%TO.C,C3*%
X143485000Y-113920000D03*
X143485000Y-108920000D03*
%TD*%
%TO.C,C1*%
X190485000Y-81920000D03*
X190485000Y-76920000D03*
%TD*%
D18*
%TO.C,H2*%
X192485000Y-69920000D03*
%TD*%
%TO.C,H3*%
X192485000Y-121920000D03*
%TD*%
D19*
%TO.C,C2*%
X190485000Y-104920000D03*
X190485000Y-99920000D03*
%TD*%
D10*
%TO.C,74HC595*%
X178485000Y-76920000D03*
D11*
X186105000Y-94700000D03*
X178485000Y-79460000D03*
X186105000Y-92160000D03*
X178485000Y-82000000D03*
X186105000Y-89620000D03*
X178485000Y-84540000D03*
X186105000Y-87080000D03*
X178485000Y-87080000D03*
X186105000Y-84540000D03*
X178485000Y-89620000D03*
X186105000Y-82000000D03*
X178485000Y-92160000D03*
X186105000Y-79460000D03*
X178485000Y-94700000D03*
X186105000Y-76920000D03*
%TD*%
D10*
%TO.C,74HC595*%
X178485000Y-99920000D03*
D11*
X186105000Y-117700000D03*
X178485000Y-102460000D03*
X186105000Y-115160000D03*
X178485000Y-105000000D03*
X186105000Y-112620000D03*
X178485000Y-107540000D03*
X186105000Y-110080000D03*
X178485000Y-110080000D03*
X186105000Y-107540000D03*
X178485000Y-112620000D03*
X186105000Y-105000000D03*
X178485000Y-115160000D03*
X186105000Y-102460000D03*
X178485000Y-117700000D03*
X186105000Y-99920000D03*
%TD*%
M02*
