M48
; DRILL file {KiCad 5.1.10} date Fri Aug  6 14:57:58 2021
; FORMAT={-:-/ absolute / inch / decimal}
; #@! TF.CreationDate,2021-08-06T14:57:58+02:00
; #@! TF.GenerationSoftware,Kicad,Pcbnew,5.1.10
FMAT,2
INCH
T1C0.0157
T2C0.0276
T3C0.0315
T4C0.0354
T5C0.0394
T6C0.1063
%
G90
G05
T1
X6.1866Y-3.4478
X7.1451Y-3.6976
X7.1844Y-3.6189
X7.2238Y-3.5402
T2
X4.0348Y-3.737
X4.0348Y-4.037
T3
X5.649Y-4.2882
X5.649Y-4.485
X7.027Y-3.0283
X7.027Y-3.1283
X7.027Y-3.2283
X7.027Y-3.3283
X7.027Y-3.4283
X7.027Y-3.5283
X7.027Y-3.6283
X7.027Y-3.7283
X7.027Y-3.9339
X7.027Y-4.0339
X7.027Y-4.1339
X7.027Y-4.2339
X7.027Y-4.3339
X7.027Y-4.4339
X7.027Y-4.5339
X7.027Y-4.6339
X7.327Y-3.0283
X7.327Y-3.1283
X7.327Y-3.2283
X7.327Y-3.3283
X7.327Y-3.4283
X7.327Y-3.5283
X7.327Y-3.6283
X7.327Y-3.7283
X7.327Y-3.9339
X7.327Y-4.0339
X7.327Y-4.1339
X7.327Y-4.2339
X7.327Y-4.3339
X7.327Y-4.4339
X7.327Y-4.5339
X7.327Y-4.6339
X7.4994Y-3.0283
X7.4994Y-3.2252
X7.4994Y-3.9339
X7.4994Y-4.1307
T4
X4.0348Y-4.1882
X4.0348Y-4.2882
T5
X4.0348Y-2.989
X4.0348Y-3.589
X4.1348Y-2.989
X4.1348Y-3.589
X4.2348Y-2.989
X4.2348Y-3.589
X4.3348Y-2.989
X4.3348Y-3.589
X4.4348Y-2.989
X4.4348Y-3.589
X4.5348Y-2.989
X4.5348Y-3.589
X4.6348Y-2.989
X4.6348Y-3.589
X4.7348Y-2.989
X4.7348Y-3.589
X4.8348Y-2.989
X4.8348Y-3.589
X4.9348Y-2.989
X4.9348Y-3.589
X5.0348Y-2.989
X5.0348Y-3.589
X5.1348Y-2.989
X5.1348Y-3.589
X5.2348Y-2.989
X5.2348Y-3.589
X5.3348Y-2.989
X5.3348Y-3.589
X5.4348Y-2.989
X5.4348Y-3.589
X5.9545Y-2.989
X5.9545Y-3.089
X5.9545Y-3.189
X5.9545Y-3.289
X5.9545Y-3.389
X5.9545Y-3.489
X5.9545Y-3.589
X5.9545Y-3.689
X5.9545Y-3.789
X5.9545Y-3.889
X5.9545Y-3.989
X5.9545Y-4.089
X5.9545Y-4.189
X5.9545Y-4.289
X6.5545Y-2.989
X6.5545Y-3.089
X6.5545Y-3.189
X6.5545Y-3.289
X6.5545Y-3.389
X6.5545Y-3.489
X6.5545Y-3.589
X6.5545Y-3.689
X6.5545Y-3.789
X6.5545Y-3.889
X6.5545Y-3.989
X6.5545Y-4.089
X6.5545Y-4.189
X6.5545Y-4.289
T6
X3.9561Y-2.7528
X3.9561Y-4.8
X7.5781Y-2.7528
X7.5781Y-4.8
T0
M30
